<svg xmlns="http://www.w3.org/2000/svg" viewBox="0 0 64 64">
  <defs>
    <linearGradient id="shield" x1="16" y1="7" x2="49" y2="58" gradientUnits="userSpaceOnUse">
      <stop stop-color="#26dce6"/>
      <stop offset=".48" stop-color="#18b9e1"/>
      <stop offset="1" stop-color="#2873ec"/>
    </linearGradient>
    <linearGradient id="rim" x1="13" y1="8" x2="51" y2="56" gradientUnits="userSpaceOnUse">
      <stop stop-color="#68f4f6"/>
      <stop offset=".42" stop-color="#0ba7cf"/>
      <stop offset="1" stop-color="#1e56cf"/>
    </linearGradient>
    <linearGradient id="gloss" x1="20" y1="8" x2="43" y2="42" gradientUnits="userSpaceOnUse">
      <stop stop-color="#fff" stop-opacity=".5"/>
      <stop offset="1" stop-color="#fff" stop-opacity="0"/>
    </linearGradient>
    <filter id="shadow" x="-25%" y="-20%" width="150%" height="155%">
      <feDropShadow dx="0" dy="2" stdDeviation="2" flood-color="#0878d8" flood-opacity=".5"/>
    </filter>
  </defs>
  <path d="M32 4.5c7 4.8 13.6 6.6 21.5 7.8v18.3c0 14.1-7.7 23.5-21.5 29-13.8-5.5-21.5-14.9-21.5-29V12.3C18.4 11.1 25 9.3 32 4.5Z" fill="url(#shield)" stroke="url(#rim)" stroke-width="3" stroke-linejoin="round" filter="url(#shadow)"/>
  <path d="M32 8.2c6.4 4 12.2 5.8 18 6.7" fill="none" stroke="#d9ffff" stroke-width="1.4" stroke-linecap="round" opacity=".75"/>
  <path d="M13.8 14.6v15.7c0 12.2 6.2 20.4 18.2 25.6" fill="none" stroke="#8ef6fb" stroke-width="1.2" stroke-linecap="round" opacity=".8"/>
  <path d="M14 14.2C21 13 27 10.8 32 7.5c5.8 3.8 11 5.5 17.7 6.7-7.3 7.8-20.4 12.2-35.7 13.1V14.2Z" fill="url(#gloss)"/>
  <path d="M20 28.2 27.4 23l7.1 4.1 9.2-8.1" fill="none" stroke="#fff" stroke-width="3.2" stroke-linecap="round" stroke-linejoin="round"/>
  <circle cx="20" cy="28.2" r="3.2" fill="#fff"/>
  <circle cx="27.4" cy="23" r="3.2" fill="#fff"/>
  <circle cx="34.5" cy="27.1" r="3.2" fill="#fff"/>
  <circle cx="43.7" cy="19" r="3.2" fill="#fff"/>
  <rect x="18" y="41" width="7" height="7" rx="1.3" fill="#fff"/>
  <rect x="28.5" y="34" width="7" height="14" rx="1.3" fill="#fff"/>
  <rect x="39" y="38" width="7" height="10" rx="1.3" fill="#fff"/>
  <path d="M49.2 15.2 50 17.4l2.2.8-2.2.8-.8 2.2-.8-2.2-2.2-.8 2.2-.8.8-2.2Z" fill="#fff" opacity=".9"/>
</svg>
